<svg xmlns="http://www.w3.org/2000/svg" viewBox="0 0 1024 781.318">
  <g>
    <!-- Main body - light blue -->
    <path fill="#7292B1" d="M997.611,152.654c-29.078,129.74-185.717,191.658-193.221,194.54c0,0-0.004,0.006-0.008,0.006
      c-0.167,0.043-0.264,0.101-0.264,0.101s39.996,24.382,38.803,36.879c-0.085,0.897-0.373,1.7-0.878,2.452
      c-7.894,11.424-97.845,11.69-180.946,56.481c-29.857,16.086-98.176,42.2-77.423,175.926
      c14.563,94.018,81.024,115.031,25.566,139.996c-106.036,47.742-111.608-73.324-149.109-114.229
      c-38.949-42.529-122.295-36.256-157.822-0.031l0.036,0.031c-37.469,40.904-50.334,161.971-156.355,114.229
      c-55.453-24.965,1.437-54.472,27.713-145.875c15.258-44.813,1.71-39.874-55.235-67.066
      C-0.615,489.242,16.021,372.859,36.405,372.859c11.925,0,3.426,15.031,46.518,68.5c15.319,18.979,56.036,56.883,101.508,43.86
      c41.098-11.771,29.956-46.993,104.502-82.712c0.011-0.006,0.017-0.012,0.05-0.016c5.512-2.654,11.522-5.322,18.049-7.979
      c0.037-0.01,0.053-0.013,0.063-0.016c31.104-11.697,71.082-19.212,72.563-19.465l-46.996,11.137c0,0-14.813-60.749,10.904-72.844
      c31.106-14.654,72.937-7.163,99.049-7.163s27.539-35.768,49.688-75.435c22.185-39.702,64.479-91.866,151.645-95.854
      c124.412-5.666,263.982,73.74,309.638-4.838c24.86-42.757-8.333-70.125-53.323-85.251c-9.426-3.176,1.159-36.183,13.322-33.293
      C970.312,24.977,1016.779,67.228,997.611,152.654z"/>
    <!-- Inner ear/belly shadow - darker blue -->
    <path fill="#576D85" d="M483.294,333.308c0,0-140.021,23.474-106.114,142.627c33.94,119.152,166.99,86.983,186.994,6.103
      c0,0-45.205,80.881-113.917,28.703C381.547,458.529,418.053,347.213,483.294,333.308z"/>
    <!-- Eye - dark circle -->
    <path fill="#576D85" d="M696.994,351.013c0,10.557-8.553,19.138-19.137,19.138c-10.553,0-19.138-8.581-19.138-19.138
      c0-10.586,8.585-19.132,19.138-19.132C688.441,331.881,696.994,340.427,696.994,351.013z"/>
    <!-- Eye highlight - white -->
    <path fill="#FFFFFF" d="M677.857,344.883c0,4.884-3.945,8.834-8.83,8.834c-4.883,0-8.867-3.95-8.867-8.834
      c0-4.913,3.984-8.863,8.867-8.863C673.912,336.02,677.857,339.97,677.857,344.883z"/>
    <!-- Nose/snout detail - darker blue -->
    <path fill="#576D85" d="M842.922,384.18c-9.171,2.938-29.786-0.436-52.62-6.121c-36.979-9.145,2.302-26.61,14.081-30.858
      c-0.167,0.043-0.264,0.101-0.264,0.101S844.115,371.683,842.922,384.18z"/>
  </g>
</svg>
